<svg version="1" xmlns="http://www.w3.org/2000/svg" width="1073.333" height="1073.333" viewBox="0 0 805.000000 805.000000"><path d="M371 1c-37.9 3.6-69.7 10.3-103.2 21.9-37.2 12.9-83.1 37.8-110.7 60l-4.4 3.6 88.4.6c95.4.6 98.5.7 126.6 6.4 26.3 5.4 50.6 15.4 67.9 28.2 20.3 15.1 38.1 38.9 47.6 63.5l3.3 8.7 55.8.1h55.8l-.3 15.2-.3 15.3-20.7.3c-11.5.1-20.8.5-20.8.9 0 .3 17.6 29.6 39.1 65 26.5 43.4 39.7 64.3 40.8 64.3 1-.1 14.5-22 39.6-64.8l38.1-64.7-21.6-.5-21.5-.5v-30l37.8-.3c20.7-.1 37.7-.6 37.7-1 0-1.1-13.1-20.8-20.2-30.4-10.2-13.7-25.4-31.2-38.8-44.6-65-65-147-104.6-240-115.8C431.2.6 385.3-.3 371 1zM86.8 151.7c-45.6 56.6-75.2 127-85 201.8-1.8 13.8-1.8 84.2 0 98 6.2 47.2 20.3 93.2 41 133.5 9.5 18.4 21.2 37.9 21.2 35.2 0-.9 7.7-1.2 35-1.2h35V145H92.2l-5.4 6.7z"/><path d="M197 259.9V375h54.8c53.8 0 69.1-.6 86.4-3.6 28-4.7 51.7-16.8 65.9-33.5 16.5-19.3 24.4-42.7 25.6-75.4 1-28.8-4.3-53.5-15.5-72-2-3.3-7.2-9.6-11.7-14.1-15.4-15.6-34.7-24-66.5-29.1-8.8-1.4-21.1-1.7-74.7-2l-64.3-.4v115z"/><path d="M493.5 226.7c1.4 3.5 1.8 34.9.6 46.4-4.7 45.7-22.4 82.7-52.5 109.7-15 13.5-38 26.3-58.8 32.6-3.2 1-5.8 2.1-5.8 2.5 0 .4 6.6 14 14.6 30.2 8.1 16.2 17 34.3 19.9 40.4 2.9 6 13.6 27.9 23.7 48.5s23.3 47.5 29.3 59.8l10.8 22.2h69.6l.3 29 .3 29h-55.7c-30.7 0-55.8-.4-55.8-.9 0-.4-9.7-20.8-21.6-45.2-11.9-24.4-22.9-47.1-24.4-50.4-1.5-3.3-15.9-33.2-32-66.5s-31.7-65.8-34.8-72.3l-5.5-11.7H197v189h74v58l-81.7.2-81.8.3 11.5 11.4c43.6 43.1 97.2 76 155 95.1 28.2 9.4 53.3 15 84 18.7 20.3 2.5 67.7 2.5 88 0 40-4.8 79.1-15 112.5-29.2C708.3 709.9 805 564.3 805 402.5c0-59-12.5-115.4-37.9-170.8L764 225h-7.3c-5.8 0-7.4.3-8.3 1.7-.6 1-22.5 37.6-48.7 81.3L652 387.6V477h55v31H563v-31h54v-89.1l-51.1-81.5-51.1-81.4h-11c-10.1 0-11 .1-10.3 1.7z"/></svg>